<svg width="111" height="122" viewBox="0 0 111 122" fill="none" xmlns="http://www.w3.org/2000/svg">
<path fill-rule="evenodd" clip-rule="evenodd" d="M2.269 25.806C1.26148 26.8048 0.691897 28.1628 0.685521 29.5815C0.679145 31.0001 1.2365 32.3632 2.235 33.371L6.095 37.265C7.0939 38.2724 8.45201 38.8418 9.87067 38.848C11.2893 38.8542 12.6524 38.2966 13.66 37.298L21.045 29.978C22.0525 28.9792 22.6221 27.6212 22.6285 26.2025C22.6349 24.7839 22.0775 23.4208 21.079 22.413L17.219 18.52C16.2202 17.5125 14.8622 16.9429 13.4435 16.9365C12.0249 16.9301 10.6618 17.4875 9.654 18.486L2.269 25.806ZM5.175 28.738L12.56 21.418C12.7901 21.1898 13.1014 21.0623 13.4255 21.0637C13.7495 21.065 14.0598 21.1949 14.288 21.425L18.147 25.319C18.26 25.4329 18.3495 25.568 18.4103 25.7166C18.4711 25.8651 18.502 26.0242 18.5013 26.1847C18.5005 26.3451 18.4681 26.5039 18.406 26.6519C18.3438 26.7999 18.2531 26.9341 18.139 27.047L10.754 34.367C10.6401 34.48 10.505 34.5695 10.3564 34.6303C10.2079 34.6911 10.0488 34.722 9.88834 34.7212C9.72785 34.7205 9.56908 34.6881 9.42111 34.626C9.27314 34.5638 9.13888 34.4731 9.026 34.359L5.167 30.466C5.05396 30.3521 4.96448 30.217 4.9037 30.0684C4.84291 29.9199 4.81201 29.7608 4.81275 29.6003C4.81349 29.4398 4.84587 29.2811 4.90803 29.1331C4.97019 28.9851 5.06091 28.8509 5.175 28.738ZM59.84 32.088C38.799 32.088 21.716 49.171 21.716 70.212C21.716 91.253 38.799 108.336 59.84 108.336C80.882 108.336 97.965 91.253 97.965 70.212C97.965 49.171 80.882 32.088 59.84 32.088ZM59.84 36.215C78.604 36.215 93.837 51.449 93.837 70.212C93.837 88.976 78.604 104.209 59.84 104.209C41.077 104.209 25.843 88.976 25.843 70.212C25.843 51.449 41.077 36.215 59.84 36.215Z" fill="#59B4FF"/>
<path fill-rule="evenodd" clip-rule="evenodd" d="M49.292 17.124H38.505C37.693 17.1244 36.8889 16.9648 36.1386 16.6542C35.3884 16.3437 34.7066 15.8884 34.1324 15.3143C33.5582 14.7402 33.1028 14.0585 32.7921 13.3083C32.4815 12.5581 32.3217 11.754 32.322 10.942V6.452C32.3223 4.81234 32.9738 3.23992 34.1333 2.0806C35.2928 0.921281 36.8653 0.269997 38.505 0.269997H81.176C82.8157 0.269997 84.3882 0.921281 85.5477 2.0806C86.7072 3.23992 87.3587 4.81234 87.359 6.452V10.942C87.3587 12.5817 86.7072 14.1541 85.5477 15.3134C84.3882 16.4727 82.8157 17.124 81.176 17.124H70.389V20.459C93.401 25.323 110.692 45.764 110.692 70.212C110.692 98.278 87.906 121.064 59.84 121.064C31.775 121.064 8.989 98.278 8.989 70.212C8.989 45.764 26.279 25.323 49.292 20.459V17.124ZM51.713 22.161H53.235H51.355H53.419V15.061C53.419 13.921 52.495 12.997 51.355 12.997H38.505C37.9599 12.997 37.4371 12.7805 37.0515 12.3952C36.666 12.0098 36.4493 11.4871 36.449 10.942V6.452C36.449 5.317 37.37 4.397 38.505 4.397H81.176C82.311 4.397 83.231 5.317 83.231 6.452V10.942C83.2314 11.212 83.1785 11.4794 83.0754 11.7289C82.9722 11.9784 82.8209 12.2051 82.63 12.396C82.4391 12.5869 82.2124 12.7382 81.9629 12.8414C81.7134 12.9445 81.446 12.9974 81.176 12.997H68.325C67.185 12.997 66.261 13.921 66.261 15.061V22.161C66.261 23.163 66.981 24.02 67.968 24.193C89.889 28.045 106.564 47.197 106.564 70.212C106.564 96 85.628 116.936 59.84 116.936C34.053 116.936 13.116 96 13.116 70.212C13.116 47.197 29.792 28.045 51.713 24.193V22.161Z" fill="#59B4FF"/>
<path fill-rule="evenodd" clip-rule="evenodd" d="M65.979 66.992L78.269 54.702C78.6451 54.3128 78.8533 53.7914 78.8487 53.2502C78.8441 52.709 78.6271 52.1913 78.2445 51.8085C77.8618 51.4258 77.3442 51.2086 76.803 51.2038C76.2618 51.199 75.7403 51.407 75.351 51.783L63.06 64.074C62.6955 64.4655 62.4972 64.9833 62.5068 65.5181C62.5164 66.053 62.7332 66.5632 63.1115 66.9414C63.4899 67.3196 64.0002 67.5363 64.5351 67.5457C65.0699 67.5551 65.5876 67.3566 65.979 66.992Z" fill="#59B4FF"/>
<path fill-rule="evenodd" clip-rule="evenodd" d="M59.84 61.53C55.048 61.53 51.158 65.42 51.158 70.212C51.158 75.004 55.048 78.895 59.84 78.895C64.632 78.895 68.523 75.004 68.523 70.212C68.523 65.42 64.632 61.53 59.84 61.53ZM59.84 65.657C61.048 65.6575 62.2064 66.1376 63.0606 66.9917C63.9149 67.8457 64.3952 69.004 64.396 70.212C64.3952 71.42 63.9149 72.5783 63.0606 73.4324C62.2064 74.2864 61.048 74.7665 59.84 74.767C58.6321 74.7665 57.4738 74.2864 56.6197 73.4323C55.7656 72.5782 55.2855 71.4199 55.285 70.212C55.2855 69.0041 55.7656 67.8458 56.6197 66.9917C57.4738 66.1376 58.6321 65.6575 59.84 65.657ZM49.292 22.161C49.292 22.4612 49.3575 22.7578 49.4839 23.0301C49.6104 23.3024 49.7947 23.5438 50.0241 23.7375C50.2535 23.9312 50.5224 24.0725 50.812 24.1515C51.1016 24.2305 51.405 24.2454 51.701 24.195C56.961 23.303 62.38 23.257 67.984 24.196C68.2797 24.2455 68.5827 24.2301 68.8718 24.1506C69.161 24.0712 69.4293 23.9297 69.6582 23.736C69.8871 23.5423 70.0711 23.3011 70.1973 23.0291C70.3235 22.7571 70.3889 22.4609 70.389 22.161V15.061C70.389 13.921 69.465 12.997 68.325 12.997H51.355C50.8078 12.9973 50.283 13.2148 49.8962 13.6019C49.5093 13.9889 49.292 14.5138 49.292 15.061V22.161ZM66.261 19.777V17.124H53.419V19.774C57.6837 19.2494 61.9966 19.2505 66.261 19.777ZM61.904 104.683V100.939C61.8921 100.4 61.6695 99.8863 61.2838 99.509C60.8981 99.1317 60.38 98.9204 59.8405 98.9204C59.301 98.9204 58.7829 99.1317 58.3972 99.509C58.0115 99.8863 57.7889 100.4 57.777 100.939V104.683C57.7889 105.222 58.0115 105.736 58.3972 106.113C58.7829 106.49 59.301 106.702 59.8405 106.702C60.38 106.702 60.8981 106.49 61.2838 106.113C61.6695 105.736 61.8921 105.222 61.904 104.683ZM61.904 39.485V35.741C61.8921 35.2016 61.6695 34.6883 61.2838 34.311C60.8981 33.9337 60.38 33.7224 59.8405 33.7224C59.301 33.7224 58.7829 33.9337 58.3972 34.311C58.0115 34.6883 57.7889 35.2016 57.777 35.741V39.485C57.7889 40.0244 58.0115 40.5377 58.3972 40.915C58.7829 41.2923 59.301 41.5036 59.8405 41.5036C60.38 41.5036 60.8981 41.2923 61.2838 40.915C61.6695 40.5377 61.8921 40.0244 61.904 39.485ZM94.311 68.148H90.567C90.0307 68.1647 89.522 68.3895 89.1485 68.7747C88.7751 69.16 88.5663 69.6755 88.5663 70.212C88.5663 70.7485 88.7751 71.264 89.1485 71.6493C89.522 72.0345 90.0307 72.2593 90.567 72.276H94.311C94.8473 72.2593 95.356 72.0345 95.7295 71.6493C96.1029 71.264 96.3117 70.7485 96.3117 70.212C96.3117 69.6755 96.1029 69.16 95.7295 68.7747C95.356 68.3895 94.8473 68.1647 94.311 68.148ZM82.756 44.378L80.108 47.026C79.7435 47.4176 79.5452 47.9353 79.5548 48.4701C79.5644 49.005 79.7812 49.5152 80.1595 49.8934C80.5379 50.2716 81.0482 50.4883 81.5831 50.4977C82.1179 50.5071 82.6356 50.3086 83.027 49.944L85.674 47.297C86.0501 46.9078 86.2583 46.3864 86.2537 45.8452C86.2491 45.304 86.0321 44.7863 85.6495 44.4035C85.2668 44.0208 84.7492 43.8036 84.208 43.7988C83.6668 43.794 83.1453 44.002 82.756 44.378ZM36.654 90.48L34.006 93.127C33.6194 93.5143 33.4023 94.0392 33.4023 94.5865C33.4023 95.1338 33.6194 95.6587 34.006 96.046C34.3933 96.4326 34.9182 96.6497 35.4655 96.6497C36.0128 96.6497 36.5377 96.4326 36.925 96.046L39.572 93.399C39.9481 93.0098 40.1563 92.4884 40.1517 91.9472C40.1471 91.406 39.9301 90.8883 39.5475 90.5055C39.1648 90.1228 38.6472 89.9056 38.106 89.9008C37.5648 89.8961 37.0433 90.104 36.654 90.48ZM75.289 39.328L73.417 42.57C73.1433 43.0439 73.0691 43.6072 73.2107 44.1359C73.3523 44.6645 73.6981 45.1153 74.172 45.389C74.6459 45.6627 75.2092 45.7369 75.7379 45.5953C76.2665 45.4537 76.7173 45.1079 76.991 44.634L78.863 41.391C79.1202 40.9181 79.1825 40.3634 79.0365 39.8452C78.8906 39.327 78.5479 38.8864 78.0817 38.6172C77.6154 38.3481 77.0625 38.2718 76.5408 38.4046C76.019 38.5373 75.5699 38.8687 75.289 39.328ZM42.69 95.79L40.818 99.033C40.568 99.5054 40.5109 100.056 40.6587 100.57C40.8065 101.084 41.1477 101.52 41.6105 101.787C42.0733 102.054 42.6217 102.132 43.1404 102.003C43.6592 101.874 44.1078 101.55 44.392 101.097L46.264 97.854C46.514 97.3816 46.5711 96.8307 46.4233 96.3171C46.2755 95.8035 45.9343 95.3672 45.4715 95.0999C45.0087 94.8326 44.4603 94.7552 43.9416 94.8839C43.4228 95.0126 42.9742 95.3374 42.69 95.79ZM73.417 97.854L75.289 101.097C75.563 101.571 76.0137 101.916 76.5423 102.058C77.0708 102.199 77.634 102.125 78.108 101.852C78.5817 101.578 78.9272 101.127 79.0688 100.599C79.2103 100.07 79.1363 99.507 78.863 99.033L76.991 95.79C76.7115 95.3276 76.2619 94.9933 75.7386 94.8588C75.2154 94.7242 74.6603 94.8002 74.1924 95.0704C73.7246 95.3406 73.3813 95.7834 73.2363 96.3039C73.0914 96.8243 73.1562 97.3808 73.417 97.854ZM48.925 37.45L49.894 41.066C50.036 41.5946 50.382 42.0452 50.856 42.3189C51.33 42.5927 51.8932 42.6671 52.422 42.526C52.9505 42.384 53.4011 42.038 53.6747 41.5639C53.9482 41.0899 54.0225 40.5267 53.881 39.998L52.912 36.382C52.77 35.8534 52.424 35.4028 51.95 35.1291C51.476 34.8553 50.9128 34.7809 50.384 34.922C49.8554 35.064 49.4049 35.41 49.1313 35.8841C48.8578 36.3581 48.7835 36.9213 48.925 37.45ZM65.8 100.426L66.769 104.043C66.834 104.31 66.9518 104.562 67.1155 104.783C67.2791 105.004 67.4854 105.191 67.722 105.331C67.9587 105.471 68.221 105.563 68.4936 105.6C68.7662 105.638 69.0435 105.62 69.3092 105.549C69.575 105.478 69.8238 105.354 70.041 105.185C70.2583 105.016 70.4396 104.806 70.5743 104.566C70.709 104.326 70.7944 104.062 70.8254 103.788C70.8564 103.515 70.8325 103.238 70.755 102.974L69.786 99.358C69.6332 98.842 69.285 98.4061 68.8156 98.1432C68.3461 97.8802 67.7925 97.811 67.2727 97.9503C66.753 98.0895 66.3081 98.4263 66.033 98.8887C65.7579 99.3512 65.6743 99.9028 65.8 100.426ZM66.769 36.382L65.8 39.998C65.6743 40.5212 65.7579 41.0728 66.033 41.5353C66.3081 41.9977 66.753 42.3345 67.2727 42.4737C67.7925 42.613 68.3461 42.5438 68.8156 42.2808C69.285 42.0179 69.6332 41.582 69.786 41.066L70.755 37.45C70.8965 36.9213 70.8222 36.3581 70.5487 35.8841C70.2751 35.41 69.8245 35.064 69.296 34.922C68.7673 34.7809 68.2042 34.8554 67.7304 35.1291C67.2566 35.4029 66.9108 35.8535 66.769 36.382ZM93.671 77.14L90.054 76.171C89.5283 76.0383 88.9714 76.1178 88.5039 76.3924C88.0363 76.6669 87.6955 77.1144 87.5552 77.6382C87.4149 78.162 87.4864 78.7199 87.7541 79.1914C88.0218 79.6629 88.4643 80.0101 88.986 80.158L92.602 81.127C93.124 81.2489 93.673 81.1631 94.1329 80.8877C94.5927 80.6122 94.9275 80.1687 95.0663 79.6509C95.2051 79.1331 95.1372 78.5817 94.8768 78.1131C94.6164 77.6445 94.184 77.2956 93.671 77.14ZM90.725 85.66L87.482 83.788C87.0094 83.5366 86.4576 83.4785 85.943 83.6261C85.4284 83.7737 84.9912 84.1153 84.7236 84.579C84.4561 85.0427 84.379 85.5921 84.5088 86.1115C84.6385 86.6309 84.9648 87.0796 85.419 87.363L88.661 89.235C89.1338 89.4889 89.6869 89.5487 90.203 89.4019C90.7192 89.255 91.1579 88.913 91.4263 88.4482C91.6946 87.9834 91.7714 87.4325 91.6405 86.912C91.5096 86.3916 91.1813 85.9425 90.725 85.66ZM31.019 89.235L34.262 87.363C34.7183 87.0805 35.0467 86.6314 35.1776 86.111C35.3085 85.5905 35.2316 85.0396 34.9633 84.5748C34.6949 84.11 34.2562 83.768 33.7401 83.6211C33.2239 83.4743 32.6708 83.5341 32.198 83.788L28.956 85.66C28.5018 85.9434 28.1755 86.3921 28.0458 86.9115C27.916 87.4309 27.9931 87.9803 28.2606 88.444C28.5282 88.9077 28.9654 89.2493 29.48 89.3969C29.9946 89.5444 30.5464 89.4864 31.019 89.235ZM87.482 56.636L90.725 54.764C91.1813 54.4815 91.5096 54.0324 91.6405 53.512C91.7714 52.9915 91.6946 52.4406 91.4263 51.9758C91.1579 51.511 90.7192 51.169 90.203 51.0221C89.6869 50.8753 89.1338 50.9351 88.661 51.189L85.419 53.061C84.9451 53.335 84.5993 53.7859 84.4576 54.3146C84.3158 54.8433 84.3897 55.4067 84.663 55.881C84.937 56.3547 85.3877 56.7002 85.9163 56.8418C86.4448 56.9833 87.008 56.9093 87.482 56.636ZM27.078 81.127L30.695 80.158C31.2192 80.0122 31.6647 79.6654 31.9345 79.1929C32.2043 78.7204 32.2766 78.1605 32.1357 77.6349C31.9948 77.1094 31.652 76.6607 31.182 76.3866C30.7121 76.1124 30.1528 76.0349 29.626 76.171L26.01 77.14C25.4883 77.2879 25.0458 77.6351 24.7781 78.1066C24.5104 78.5781 24.4389 79.1361 24.5792 79.6598C24.7195 80.1836 25.0603 80.6311 25.5279 80.9056C25.9954 81.1802 26.5523 81.2597 27.078 81.127ZM90.054 64.253L93.671 63.284C94.184 63.1284 94.6164 62.7795 94.8768 62.3109C95.1372 61.8423 95.2051 61.2909 95.0663 60.7731C94.9275 60.2553 94.5927 59.8118 94.1329 59.5363C93.673 59.2609 93.124 59.175 92.602 59.297L88.986 60.266C88.4739 60.4222 88.0425 60.7712 87.7828 61.2394C87.523 61.7076 87.4553 62.2583 87.5938 62.7755C87.7323 63.2926 88.0663 63.7358 88.5253 64.0114C88.9843 64.2871 89.5324 64.3737 90.054 64.253ZM80.108 93.399L82.756 96.046C83.1475 96.4105 83.6653 96.6088 84.2001 96.5992C84.735 96.5896 85.2452 96.3728 85.6234 95.9945C86.0016 95.6161 86.2183 95.1058 86.2277 94.5709C86.2371 94.0361 86.0386 93.5184 85.674 93.127L83.027 90.48C82.6397 90.0934 82.1148 89.8763 81.5675 89.8763C81.0202 89.8763 80.4953 90.0934 80.108 90.48C79.7214 90.8673 79.5043 91.3922 79.5043 91.9395C79.5043 92.4868 79.7214 93.0117 80.108 93.399ZM49.894 99.358L48.925 102.974C48.8031 103.496 48.8889 104.045 49.1643 104.505C49.4398 104.965 49.8833 105.299 50.4011 105.438C50.9189 105.577 51.4703 105.509 51.9389 105.249C52.4075 104.988 52.7564 104.556 52.912 104.043L53.881 100.426C54.0137 99.9003 53.9342 99.3434 53.6596 98.8759C53.3851 98.4083 52.9376 98.0675 52.4138 97.9272C51.8901 97.7869 51.3321 97.8584 50.8606 98.1261C50.3891 98.3938 50.0419 98.8363 49.894 99.358ZM29.113 68.148H25.369C24.8216 68.148 24.2966 68.3655 23.9095 68.7525C23.5225 69.1396 23.305 69.6646 23.305 70.212C23.305 70.7594 23.5225 71.2844 23.9095 71.6715C24.2966 72.0585 24.8216 72.276 25.369 72.276H29.113C29.6493 72.2593 30.158 72.0345 30.5315 71.6493C30.9049 71.264 31.1137 70.7485 31.1137 70.212C31.1137 69.6755 30.9049 69.16 30.5315 68.7747C30.158 68.3895 29.6493 68.1647 29.113 68.148ZM40.818 41.391L42.69 44.634C42.9695 45.0964 43.4191 45.4307 43.9423 45.5652C44.4656 45.6998 45.0207 45.6238 45.4886 45.3536C45.9564 45.0834 46.2997 44.6406 46.4447 44.1201C46.5896 43.5997 46.5248 43.0432 46.264 42.57L44.392 39.328C44.1182 38.8542 43.6675 38.5084 43.1389 38.3667C42.6104 38.2249 42.0472 38.2988 41.573 38.572C41.0993 38.846 40.7538 39.2967 40.6122 39.8253C40.4707 40.3538 40.5447 40.917 40.818 41.391ZM30.695 60.266L27.078 59.297C26.5523 59.1643 25.9954 59.2439 25.5279 59.5184C25.0603 59.7929 24.7195 60.2404 24.5792 60.7642C24.4389 61.288 24.5104 61.8459 24.7781 62.3174C25.0458 62.7889 25.4883 63.1361 26.01 63.284L29.626 64.253C30.148 64.3749 30.697 64.2891 31.1569 64.0137C31.6167 63.7382 31.9515 63.2947 32.0903 62.7769C32.2291 62.2591 32.1612 61.7077 31.9008 61.2391C31.6404 60.7705 31.208 60.4216 30.695 60.266ZM34.262 53.061L31.019 51.189C30.5464 50.9376 29.9946 50.8795 29.48 51.0271C28.9654 51.1747 28.5282 51.5163 28.2606 51.98C27.9931 52.4437 27.916 52.9931 28.0458 53.5125C28.1755 54.0319 28.5018 54.4806 28.956 54.764L32.198 56.636C32.6708 56.8899 33.2239 56.9497 33.7401 56.8029C34.2562 56.656 34.6949 56.314 34.9633 55.8492C35.2316 55.3844 35.3085 54.8335 35.1776 54.313C35.0467 53.7926 34.7183 53.3435 34.262 53.061ZM34.006 47.297L36.654 49.944C37.041 50.331 37.5658 50.5483 38.113 50.5483C38.6602 50.5483 39.185 50.331 39.572 49.944C39.9589 49.557 40.1763 49.0322 40.1763 48.485C40.1763 47.9378 39.9589 47.413 39.572 47.026L36.925 44.378C36.5377 43.9914 36.0128 43.7743 35.4655 43.7743C34.9182 43.7743 34.3933 43.9914 34.006 44.378C33.6194 44.7653 33.4023 45.2902 33.4023 45.8375C33.4023 46.3848 33.6194 46.9097 34.006 47.297ZM26.828 37.16C27.2141 36.7743 27.4317 36.2512 27.433 35.7054C27.4343 35.1597 27.2193 34.6356 26.835 34.248L20.378 27.733C20.1872 27.5406 19.9604 27.3876 19.7105 27.2829C19.4606 27.1781 19.1925 27.1236 18.9215 27.1225C18.6505 27.1214 18.382 27.1737 18.1312 27.2764C17.8804 27.3791 17.6524 27.5301 17.46 27.721L11.434 33.694C11.2414 33.8847 11.0882 34.1114 10.9833 34.3613C10.8784 34.6112 10.8238 34.8793 10.8226 35.1503C10.8214 35.4213 10.8736 35.6899 10.9763 35.9407C11.079 36.1915 11.2301 36.4196 11.421 36.612L18.421 43.674C18.6336 43.8882 18.8905 44.0533 19.1737 44.1575C19.457 44.2616 19.7596 44.3024 20.0603 44.277C20.3611 44.2515 20.6525 44.1604 20.9142 44.0101C21.1759 43.8598 21.4015 43.6539 21.575 43.407C23.142 41.1766 24.8996 39.0865 26.828 37.16ZM22.486 35.723L18.9 32.105L15.805 35.172L19.658 39.06C20.5524 37.9077 21.4959 36.7943 22.486 35.723Z" fill="#59B4FF"/>
</svg>
