<svg width="31" height="31" viewBox="0 0 31 31" fill="none" xmlns="http://www.w3.org/2000/svg">
<path d="M15.5 0C6.95001 0 0 6.95001 0 15.5C0 24.05 6.95001 31 15.5 31C24.05 31 31 24.05 31 15.5C31 6.95001 24.05 0 15.5 0ZM17 23.17C17 24 16.33 24.67 15.5 24.67C14.67 24.67 14 24 14 23.17V13.61C14 12.78 14.67 12.11 15.5 12.11C16.33 12.11 17 12.78 17 13.61V23.17ZM17 9.19C17 10.02 16.33 10.69 15.5 10.69C14.67 10.69 14 10.02 14 9.19V7.82996C14 7 14.67 6.32996 15.5 6.32996C16.33 6.32996 17 7 17 7.82996V9.19Z" fill="#002761"/>
</svg>
