<svg width="48" height="40" viewBox="0 0 48 40" fill="none" xmlns="http://www.w3.org/2000/svg">
<path d="M37.8463 28.5986C36.0285 28.5986 34.2438 28.1125 32.6873 27.1924C32.1681 26.8875 31.4986 27.0592 31.1915 27.5773C30.8855 28.0965 31.0572 28.766 31.5764 29.0731C33.4698 30.1914 35.6373 30.7821 37.8463 30.7821C38.0605 30.7821 38.2695 30.7608 38.4809 30.7498C35.166 35.4197 27.229 39.4275 22.1529 39.504C15.8138 37.7129 9.11427 34.9495 2.24525 31.2938C1.81134 31.0571 1.52882 30.6211 1.49044 30.1392L0 8.6078L9.27206 0.50847C9.93625 -0.0757602 10.8894 -0.16638 11.6527 0.28778C16.7056 3.43558 17.7939 3.35553 18.1454 4.79534C18.4572 6.08074 17.521 6.72741 16.7189 8.2048C14.7533 11.3094 11.3211 8.05995 8.08333 11.2401C7.10143 12.222 6.53852 13.5866 6.53852 14.9853C6.53852 15.3158 6.68884 15.6282 6.94578 15.8361C9.03964 17.5227 14.4619 22.7606 14.4012 26.686C14.3916 27.2895 14.8735 27.7852 15.4758 27.7948C15.4822 27.7948 15.4875 27.7948 15.4929 27.7948C16.0878 27.7948 16.575 27.3172 16.5846 26.7201C16.5915 26.2597 16.5323 25.7945 16.4449 25.3285C16.5137 25.204 16.5627 25.0669 16.5782 24.9163C17.1248 19.6868 21.1111 15.4937 26.1557 14.536C25.7431 15.7664 25.5102 17.0784 25.5102 18.446C25.5102 19.0494 25.9984 19.5377 26.6019 19.5377C27.2053 19.5377 27.6936 19.0494 27.6936 18.446C27.6936 12.8467 32.2481 8.29224 37.8463 8.29224C43.4455 8.29224 48 12.8467 48 18.446C48 24.0442 43.4455 28.5986 37.8463 28.5986Z" fill="#59B4FF"/>
</svg>
