<svg width="31" height="28" viewBox="0 0 31 28" fill="none" xmlns="http://www.w3.org/2000/svg">
<path d="M0 1.5C0 2.33002 0.66998 3 1.5 3H3.41998C3.82 3 4.15997 3.28003 4.23999 3.66998L7.52002 19.45L6.44 21.08C5.65997 22.27 5.59997 23.77 6.27002 25.02C6.94 26.27 8.23999 27.04 9.65997 27.04H24.7C25.53 27.04 26.2 26.37 26.2 25.54C26.2 24.71 25.53 24.04 24.7 24.04H9.65997C9.20001 24.04 8.97998 23.73 8.90997 23.6C8.84002 23.46 8.70001 23.11 8.95001 22.73L9.94 21.22H20.93C24.65 21.22 27.91 18.84 29.05 15.3L30.75 10.03C31.25 8.47998 30.99 6.84998 30.03 5.53003C29.07 4.22003 27.6 3.47003 25.97 3.47003H7.27002L7.17999 3.06C6.80999 1.28998 5.22998 0 3.41998 0H1.5C0.66998 0 0 0.66998 0 1.5ZM21.26 13.85H19.27V15.83C19.27 16.66 18.6 17.33 17.77 17.33C16.94 17.33 16.27 16.66 16.27 15.83V13.85H14.28C13.45 13.85 12.78 13.17 12.78 12.35C12.78 11.52 13.45 10.85 14.28 10.85H16.27V8.85999C16.27 8.03003 16.94 7.35999 17.77 7.35999C18.6 7.35999 19.27 8.03003 19.27 8.85999V10.85H21.26C22.09 10.85 22.76 11.52 22.76 12.35C22.76 13.17 22.09 13.85 21.26 13.85Z" fill="#002761"/>
</svg>
