<svg width="21" height="21" viewBox="0 0 21 21" fill="none" xmlns="http://www.w3.org/2000/svg">
<path d="M17.094 2.952C15.4533 1.3005 13.2877 0.273208 10.9707 0.0472367C8.65365 -0.178734 6.33039 0.410773 4.40143 1.71413C2.47247 3.01748 1.05868 4.953 0.403808 7.18701C-0.251063 9.42101 -0.105981 11.8135 0.814044 13.952C0.909934 14.1508 0.941397 14.3745 0.904044 14.592L0.024044 18.822C-0.00985986 18.9842 -0.00293664 19.1522 0.0441915 19.3111C0.0913197 19.4699 0.177176 19.6146 0.294044 19.732C0.389848 19.8271 0.503918 19.9018 0.629378 19.9517C0.754838 20.0015 0.88909 20.0254 1.02404 20.022H1.22404L5.50404 19.162C5.72157 19.1358 5.94216 19.1669 6.14404 19.252C8.28254 20.172 10.675 20.3171 12.909 19.6622C15.143 19.0074 17.0786 17.5936 18.3819 15.6646C19.6853 13.7356 20.2748 11.4124 20.0488 9.09537C19.8228 6.77836 18.7955 4.61278 17.144 2.972L17.094 2.952ZM6.02404 11.022C5.82626 11.022 5.63292 10.9633 5.46847 10.8535C5.30402 10.7436 5.17585 10.5874 5.10016 10.4047C5.02448 10.222 5.00467 10.0209 5.04326 9.82691C5.08184 9.63292 5.17708 9.45474 5.31694 9.31489C5.45679 9.17504 5.63497 9.0798 5.82895 9.04121C6.02293 9.00262 6.224 9.02243 6.40673 9.09812C6.58945 9.1738 6.74563 9.30198 6.85551 9.46642C6.96539 9.63087 7.02404 9.82421 7.02404 10.022C7.02404 10.2872 6.91869 10.5416 6.73115 10.7291C6.54361 10.9166 6.28926 11.022 6.02404 11.022ZM10.024 11.022C9.82626 11.022 9.63292 10.9633 9.46847 10.8535C9.30402 10.7436 9.17585 10.5874 9.10016 10.4047C9.02448 10.222 9.00467 10.0209 9.04326 9.82691C9.08184 9.63292 9.17708 9.45474 9.31694 9.31489C9.45679 9.17504 9.63497 9.0798 9.82895 9.04121C10.0229 9.00262 10.224 9.02243 10.4067 9.09812C10.5895 9.1738 10.7456 9.30198 10.8555 9.46642C10.9654 9.63087 11.024 9.82421 11.024 10.022C11.024 10.2872 10.9187 10.5416 10.7312 10.7291C10.5436 10.9166 10.2893 11.022 10.024 11.022ZM14.024 11.022C13.8263 11.022 13.6329 10.9633 13.4685 10.8535C13.304 10.7436 13.1759 10.5874 13.1002 10.4047C13.0245 10.222 13.0047 10.0209 13.0433 9.82691C13.0818 9.63292 13.1771 9.45474 13.3169 9.31489C13.4568 9.17504 13.635 9.0798 13.829 9.04121C14.0229 9.00262 14.224 9.02243 14.4067 9.09812C14.5895 9.1738 14.7456 9.30198 14.8555 9.46642C14.9654 9.63087 15.024 9.82421 15.024 10.022C15.024 10.2872 14.9187 10.5416 14.7312 10.7291C14.5436 10.9166 14.2893 11.022 14.024 11.022Z" fill="#59B4FF"/>
</svg>
