<svg width="35" height="35" viewBox="0 0 35 35" fill="none" xmlns="http://www.w3.org/2000/svg">
<path fill-rule="evenodd" clip-rule="evenodd" d="M32.0416 2.34314C28.9175 -0.781048 23.8521 -0.781048 20.7279 2.34314L2.34314 20.7279C-0.781048 23.8521 -0.781048 28.9175 2.34314 32.0416C5.46738 35.1658 10.5327 35.1658 13.6569 32.0416L32.0416 13.6569C35.1658 10.5327 35.1658 5.46738 32.0416 2.34314ZM20.0207 10.1209C19.2397 9.33978 17.9733 9.33978 17.1923 10.1209L10.1212 17.1919C9.34018 17.973 9.34018 19.2393 10.1212 20.0204L14.3639 24.263C15.1449 25.0441 16.4112 25.0441 17.1923 24.263L24.2634 17.1919C25.0444 16.4109 25.0444 15.1446 24.2634 14.3635L20.0207 10.1209ZM18.6065 11.5351L22.8491 15.7777L15.7781 22.8488L11.5354 18.6062L18.6065 11.5351ZM26.3137 9.31348C25.9232 9.70398 25.29 9.70398 24.8995 9.31348C24.509 8.92298 24.509 8.28978 24.8995 7.89928C25.29 7.50878 25.9232 7.50878 26.3137 7.89928C26.7043 8.28978 26.7043 8.92298 26.3137 9.31348ZM25.8995 5.31348C26.29 5.70398 26.9232 5.70398 27.3137 5.31348C27.7043 4.92298 27.7043 4.28978 27.3137 3.89928C26.9232 3.50878 26.29 3.50878 25.8995 3.89928C25.509 4.28978 25.509 4.92298 25.8995 5.31348ZM23.3137 6.31348C22.9232 6.70398 22.29 6.70398 21.8995 6.31348C21.509 5.92298 21.509 5.28978 21.8995 4.89928C22.29 4.50878 22.9232 4.50878 23.3137 4.89928C23.7043 5.28978 23.7043 5.92298 23.3137 6.31348ZM27.8995 12.3135C28.29 12.704 28.9232 12.704 29.3137 12.3135C29.7043 11.923 29.7043 11.2898 29.3137 10.8993C28.9232 10.5088 28.29 10.5088 27.8995 10.8993C27.509 11.2898 27.509 11.923 27.8995 12.3135ZM30.3137 8.31348C29.9232 8.70398 29.29 8.70398 28.8995 8.31348C28.509 7.92298 28.509 7.28978 28.8995 6.89928C29.29 6.50878 29.9232 6.50878 30.3137 6.89928C30.7043 7.28978 30.7043 7.92298 30.3137 8.31348ZM9.31368 24.8995C8.92318 24.5089 8.28998 24.5089 7.89948 24.8995C7.50898 25.29 7.50898 25.9232 7.89948 26.3137C8.28998 26.7042 8.92318 26.7042 9.31368 26.3137C9.70428 25.9232 9.70428 25.29 9.31368 24.8995ZM8.31368 28.8995C8.70428 29.29 8.70428 29.9232 8.31368 30.3137C7.92318 30.7042 7.28998 30.7042 6.89948 30.3137C6.50898 29.9232 6.50898 29.29 6.89948 28.8995C7.28998 28.5089 7.92318 28.5089 8.31368 28.8995ZM12.3137 27.8995C11.9232 27.5089 11.29 27.5089 10.8995 27.8995C10.509 28.29 10.509 28.9232 10.8995 29.3137C11.29 29.7042 11.9232 29.7042 12.3137 29.3137C12.7043 28.9232 12.7043 28.29 12.3137 27.8995ZM4.89948 21.8995C5.28998 21.5089 5.92318 21.5089 6.31368 21.8995C6.70428 22.29 6.70428 22.9232 6.31368 23.3137C5.92318 23.7042 5.28998 23.7042 4.89948 23.3137C4.50898 22.9232 4.50898 22.29 4.89948 21.8995ZM5.31368 25.8995C4.92318 25.5089 4.28998 25.5089 3.89948 25.8995C3.50898 26.29 3.50898 26.9232 3.89948 27.3137C4.28998 27.7042 4.92318 27.7042 5.31368 27.3137C5.70428 26.9232 5.70428 26.29 5.31368 25.8995Z" fill="#59B4FF"/>
</svg>
